<?xml version="1.0" encoding="UTF-8"?>
<svg width="271px" height="37px" viewBox="0 0 271 37" version="1.1" xmlns="http://www.w3.org/2000/svg" xmlns:xlink="http://www.w3.org/1999/xlink">
    <title>Logo - Full</title>
    <g id="Welcome" stroke="none" stroke-width="1" fill="none" fill-rule="evenodd">
        <g id="Desktop" transform="translate(-378.000000, -62.000000)">
            <g id="Group" transform="translate(381.000000, 62.480000)">
                <line x1="13.1489647" y1="3.01839342" x2="13.1510353" y2="17.0242663" id="Line-2" stroke="#333333" stroke-width="6" stroke-linecap="round" transform="translate(13.150000, 10.021330) rotate(-1.218875) translate(-13.150000, -10.021330) "></line>
                <path d="M38.028,35.52 C38.86,35.52 39.556,35.24 40.116,34.68 C40.676,34.12 40.956,33.424 40.956,32.592 L40.956,32.592 L40.956,2.928 C40.956,2.096 40.692,1.4 40.164,0.84 C39.636,0.28 38.956,0 38.124,0 C37.292,0 36.596,0.28 36.036,0.84 C35.476,1.4 35.196,2.096 35.196,2.928 L35.196,2.928 L35.196,32.592 C35.196,33.424 35.468,34.12 36.012,34.68 C36.556,35.24 37.228,35.52 38.028,35.52 Z M50.2224,6.72 C51.3104,6.72 52.0944,6.552 52.5744,6.216 C53.0544,5.88 53.2944,5.248 53.2944,4.32 L53.2944,4.32 L53.2944,3.408 C53.2944,2.512 53.0704,1.888 52.6224,1.536 C52.1744,1.184 51.3904,1.008 50.2704,1.008 C49.2464,1.008 48.4864,1.176 47.9904,1.512 C47.4944,1.848 47.2464,2.48 47.2464,3.408 L47.2464,3.408 L47.2464,4.32 C47.2464,5.216 47.4704,5.84 47.9184,6.192 C48.3664,6.544 49.1344,6.72 50.2224,6.72 Z M50.2704,35.52 C51.1024,35.52 51.7904,35.24 52.3344,34.68 C52.8784,34.12 53.1504,33.424 53.1504,32.592 L53.1504,32.592 L53.1504,12.768 C53.1504,11.936 52.8784,11.24 52.3344,10.68 C51.7904,10.12 51.1024,9.84 50.2704,9.84 C49.4384,9.84 48.7504,10.12 48.2064,10.68 C47.6624,11.24 47.3904,11.936 47.3904,12.768 L47.3904,12.768 L47.3904,32.592 C47.3904,33.424 47.6624,34.12 48.2064,34.68 C48.7504,35.24 49.4384,35.52 50.2704,35.52 Z M67.9608,35.184 C68.5208,35.504 69.1048,35.616 69.7128,35.52 C70.8328,35.456 71.6488,34.848 72.1608,33.696 L72.1608,33.696 L81.1368,13.92 C81.2328,13.696 81.3208,13.456 81.4008,13.2 C81.4808,12.944 81.5208,12.704 81.5208,12.48 C81.5208,11.744 81.2728,11.128 80.7768,10.632 C80.2808,10.136 79.6328,9.888 78.8328,9.888 C77.6808,9.824 76.8328,10.432 76.2888,11.712 L76.2888,11.712 L69.719,26.821 L63.0888,11.664 C62.8612444,11.1235556 62.5325531,10.7032099 62.1027259,10.402963 L61.9368,10.296 C61.4248,9.992 60.8648,9.84 60.2568,9.84 C59.3928,9.84 58.7048,10.12 58.1928,10.68 C57.6808,11.24 57.4248,11.808 57.4248,12.384 C57.4248,12.736 57.4648,13.04 57.5448,13.296 C57.6248,13.552 57.6968,13.76 57.7608,13.92 L57.7608,13.92 L66.6888,33.696 C66.9768,34.368 67.4008,34.864 67.9608,35.184 Z M97.9872,36 C99.5872,36 101.1392,35.736 102.6432,35.208 C104.1472,34.68 105.3152,34.064 106.1472,33.36 C107.0432,32.656 107.4912,31.872 107.4912,31.008 C107.4912,30.368 107.2592,29.808 106.7952,29.328 C106.3312,28.848 105.7472,28.608 105.0432,28.608 C104.5312,28.608 103.9872,28.752 103.4112,29.04 C103.0592,29.232 102.6672,29.464 102.2352,29.736 C101.8032,30.008 101.2352,30.24 100.5312,30.432 C99.8272,30.624 98.8832,30.72 97.6992,30.72 C96.4192,30.72 95.2112,30.408 94.0752,29.784 C92.9392,29.16 92.0112,28.248 91.2912,27.048 C90.8797714,26.3622857 90.5858939,25.5903673 90.4095673,24.7322449 L90.398,24.672 L106.2432,24.672 C106.9344,24.672 107.54784,24.4776 108.08352,24.0888 L108.2592,23.952 C108.8352,23.472 109.1392,22.848 109.1712,22.08 C109.1712,20.352 108.8432,18.72 108.1872,17.184 C107.5312,15.648 106.6432,14.296 105.5232,13.128 C104.4032,11.96 103.1152,11.04 101.6592,10.368 C100.2032,9.696 98.6592,9.36 97.0272,9.36 C94.9152,9.36 92.9152,9.904 91.0272,10.992 C89.1392,12.08 87.6112,13.64 86.4432,15.672 C85.2752,17.704 84.6912,20.16 84.6912,23.04 C84.6912,25.504 85.2272,27.712 86.2992,29.664 C87.3712,31.616 88.9072,33.16 90.9072,34.296 C92.9072,35.432 95.2672,36 97.9872,36 Z M103.027,19.872 L90.449,19.872 L90.4904727,19.6665124 C90.5370182,19.4533554 90.5893818,19.2491901 90.6475636,19.0540165 L90.7392,18.768 C91.0912,17.744 91.5712,16.928 92.1792,16.32 C92.7872,15.712 93.5072,15.28 94.3392,15.024 C95.1712,14.768 96.0672,14.64 97.0272,14.64 C98.0192,14.64 98.9552,14.856 99.8352,15.288 C100.7152,15.72 101.4512,16.304 102.0432,17.04 C102.6352,17.776 102.9632,18.608 103.0272,19.536 L103.0272,19.536 L103.027,19.872 Z M117.1416,35.52 C117.9736,35.52 118.6616,35.24 119.2056,34.68 C119.7496,34.12 120.0216,33.424 120.0216,32.592 L120.0216,32.592 L120.0216,21.216 C120.0216,20.064 120.1736,19.064 120.4776,18.216 C120.7816,17.368 121.1816,16.656 121.6776,16.08 C122.1736,15.504 122.7176,15.08 123.3096,14.808 C123.9016,14.536 124.4856,14.4 125.0616,14.4 C125.7016,14.4 126.2696,14.512 126.7656,14.736 C127.2616,14.96 127.8136,15.072 128.4216,15.072 C129.0616,15.072 129.6536,14.84 130.1976,14.376 C130.7416,13.912 131.0136,13.152 131.0136,12.096 C131.0136,11.36 130.6856,10.72 130.0296,10.176 C129.3736,9.632 128.5656,9.36 127.6056,9.36 C126.8056,9.36 126.0056,9.456 125.2056,9.648 C124.4056,9.84 123.6536,10.136 122.9496,10.536 C122.2456,10.936 121.6136,11.432 121.0536,12.024 C120.7336,12.3622857 120.447559,12.7293061 120.195478,13.1250612 L120.021,13.413 L120.0216,12.768 C120.0216,12.0116364 119.796807,11.3676694 119.34722,10.8360992 L119.2056,10.68 C118.6616,10.12 117.9736,9.84 117.1416,9.84 C116.3096,9.84 115.6216,10.12 115.0776,10.68 C114.5336,11.24 114.2616,11.936 114.2616,12.768 L114.2616,12.768 L114.2616,32.592 C114.2616,33.424 114.5336,34.12 115.0776,34.68 C115.6216,35.24 116.3096,35.52 117.1416,35.52 Z M163.9944,35.52 C165.1784,35.52 166.4104,35.384 167.6904,35.112 C168.9704,34.84 170.1704,34.336 171.2904,33.6 C172.4104,32.864 173.3144,31.824 174.0024,30.48 C174.6904,29.136 175.0344,27.408 175.0344,25.296 C175.0344,23.376 174.6424,21.8 173.8584,20.568 C173.0744,19.336 172.0824,18.376 170.8824,17.688 C170.4824,17.4586667 170.077956,17.2524444 169.669067,17.0693333 L169.259,16.894 L169.485992,16.780898 C170.5384,16.2331429 171.373502,15.5273469 171.991298,14.6635102 L172.1544,14.424 C172.8904,13.288 173.2584,11.968 173.2584,10.464 C173.2584,7.648 172.5064,5.52 171.0024,4.08 C169.4984,2.64 167.2104,1.92 164.1384,1.92 L164.1384,1.92 L152.0424,1.92 C151.2104,1.92 150.5144,2.2 149.9544,2.76 C149.3944,3.32 149.1144,4.016 149.1144,4.848 L149.1144,4.848 L149.1144,32.592 C149.1144,33.424 149.3944,34.12 149.9544,34.68 C150.5144,35.24 151.2104,35.52 152.0424,35.52 L152.0424,35.52 L163.9944,35.52 Z M155.354,7.584 L163.2744,7.584 C164.3944,7.584 165.2984,7.896 165.9864,8.52 C166.6744,9.144 167.0184,10.144 167.0184,11.52 C167.0184,12.672 166.6504,13.552 165.9144,14.16 C165.1784,14.768 164.3464,15.072 163.4184,15.072 L163.4184,15.072 L155.354,15.072 L155.354,7.584 Z M155.354,20.736 L163.6584,20.736 C164.3304,20.736 165.0664,20.816 165.8664,20.976 C166.6664,21.136 167.3544,21.536 167.9304,22.176 C168.5064,22.816 168.7944,23.856 168.7944,25.296 C168.7944,26.864 168.3624,28.04 167.4984,28.824 C166.6344,29.608 165.4664,30 163.9944,30 L163.9944,30 L155.354,30 L155.354,20.736 Z M182.6208,6.72 C183.7088,6.72 184.4928,6.552 184.9728,6.216 C185.4528,5.88 185.6928,5.248 185.6928,4.32 L185.6928,4.32 L185.6928,3.408 C185.6928,2.512 185.4688,1.888 185.0208,1.536 C184.5728,1.184 183.7888,1.008 182.6688,1.008 C181.6448,1.008 180.8848,1.176 180.3888,1.512 C179.8928,1.848 179.6448,2.48 179.6448,3.408 L179.6448,3.408 L179.6448,4.32 C179.6448,5.216 179.8688,5.84 180.3168,6.192 C180.7648,6.544 181.5328,6.72 182.6208,6.72 Z M182.6688,35.52 C183.5008,35.52 184.1888,35.24 184.7328,34.68 C185.2768,34.12 185.5488,33.424 185.5488,32.592 L185.5488,32.592 L185.5488,12.768 C185.5488,11.936 185.2768,11.24 184.7328,10.68 C184.1888,10.12 183.5008,9.84 182.6688,9.84 C181.8368,9.84 181.1488,10.12 180.6048,10.68 C180.0608,11.24 179.7888,11.936 179.7888,12.768 L179.7888,12.768 L179.7888,32.592 C179.7888,33.424 180.0608,34.12 180.6048,34.68 C181.1488,35.24 181.8368,35.52 182.6688,35.52 Z M210.9912,35.52 C211.8232,35.52 212.5112,35.24 213.0552,34.68 C213.5992,34.12 213.8712,33.424 213.8712,32.592 L213.8712,32.592 L213.8712,20.304 C213.8712,18.288 213.6392,16.456 213.1752,14.808 C212.7112,13.16 211.8632,11.84 210.6312,10.848 C209.3992,9.856 207.5992,9.36 205.2312,9.36 C204.1432,9.36 203.1352,9.528 202.2072,9.864 C201.2792,10.2 200.4472,10.64 199.7112,11.184 C198.9752,11.728 198.3352,12.312 197.7912,12.936 C197.635771,13.1142857 197.490792,13.2893061 197.356261,13.4610612 L197.263,13.584 L197.2632,12.768 C197.2632,12.0116364 197.038407,11.3676694 196.58882,10.8360992 L196.4472,10.68 C195.9032,10.12 195.2152,9.84 194.3832,9.84 C193.5512,9.84 192.8632,10.12 192.3192,10.68 C191.7752,11.24 191.5032,11.936 191.5032,12.768 L191.5032,12.768 L191.5032,32.592 C191.5032,33.424 191.7752,34.12 192.3192,34.68 C192.8632,35.24 193.5512,35.52 194.3832,35.52 C195.2152,35.52 195.9032,35.24 196.4472,34.68 C196.9912,34.12 197.2632,33.424 197.2632,32.592 L197.2632,32.592 L197.2632,20.304 C197.2632,19.248 197.4952,18.296 197.9592,17.448 C198.4232,16.6 199.0952,15.92 199.9752,15.408 C200.8552,14.896 201.9352,14.64 203.2152,14.64 C204.5272,14.64 205.5352,14.896 206.2392,15.408 C206.9432,15.92 207.4312,16.6 207.7032,17.448 C207.9752,18.296 208.1112,19.248 208.1112,20.304 L208.1112,20.304 L208.1112,32.592 C208.1112,33.424 208.3832,34.12 208.9272,34.68 C209.4712,35.24 210.1592,35.52 210.9912,35.52 Z M239.6496,35.52 C240.4816,35.52 241.1696,35.24 241.7136,34.68 C242.2576,34.12 242.5296,33.424 242.5296,32.592 L242.5296,32.592 L242.5296,20.304 C242.5296,18.288 242.2976,16.456 241.8336,14.808 C241.3696,13.16 240.5216,11.84 239.2896,10.848 C238.0576,9.856 236.2576,9.36 233.8896,9.36 C232.8016,9.36 231.7936,9.528 230.8656,9.864 C229.9376,10.2 229.1056,10.64 228.3696,11.184 C227.6336,11.728 226.9936,12.312 226.4496,12.936 C226.294171,13.1142857 226.149192,13.2893061 226.014661,13.4610612 L225.921,13.584 L225.9216,12.768 C225.9216,12.0116364 225.696807,11.3676694 225.24722,10.8360992 L225.1056,10.68 C224.5616,10.12 223.8736,9.84 223.0416,9.84 C222.2096,9.84 221.5216,10.12 220.9776,10.68 C220.4336,11.24 220.1616,11.936 220.1616,12.768 L220.1616,12.768 L220.1616,32.592 C220.1616,33.424 220.4336,34.12 220.9776,34.68 C221.5216,35.24 222.2096,35.52 223.0416,35.52 C223.8736,35.52 224.5616,35.24 225.1056,34.68 C225.6496,34.12 225.9216,33.424 225.9216,32.592 L225.9216,32.592 L225.9216,20.304 C225.9216,19.248 226.1536,18.296 226.6176,17.448 C227.0816,16.6 227.7536,15.92 228.6336,15.408 C229.5136,14.896 230.5936,14.64 231.8736,14.64 C233.1856,14.64 234.1936,14.896 234.8976,15.408 C235.6016,15.92 236.0896,16.6 236.3616,17.448 C236.6336,18.296 236.7696,19.248 236.7696,20.304 L236.7696,20.304 L236.7696,32.592 C236.7696,33.424 237.0416,34.12 237.5856,34.68 C238.1296,35.24 238.8176,35.52 239.6496,35.52 Z M257.7,36 C259.204,36 260.676,35.704 262.116,35.112 C263.556,34.52 264.756,33.648 265.716,32.496 C266.676,31.344 267.156,29.952 267.156,28.32 C267.156,26.912 266.9,25.752 266.388,24.84 C265.876,23.928 265.204,23.184 264.372,22.608 C263.54,22.032 262.628,21.568 261.636,21.216 C260.644,20.864 259.668,20.56 258.708,20.304 C257.78,20.048 256.908,19.784 256.092,19.512 C255.276,19.24 254.628,18.888 254.148,18.456 C253.668,18.024 253.428,17.44 253.428,16.704 C253.428,15.904 253.636,15.32 254.052,14.952 C254.468,14.584 254.956,14.344 255.516,14.232 C256.076,14.12 256.596,14.064 257.076,14.064 C258.26,14.064 259.308,14.272 260.22,14.688 C261.132,15.104 261.86,15.664 262.404,16.368 C262.82,16.752 263.348,16.968 263.988,17.016 C264.628,17.064 265.188,16.896 265.668,16.512 C266.34,15.968 266.644,15.36 266.58,14.688 C266.516,14.016 266.308,13.44 265.956,12.96 C265.284,12.096 264.452,11.4 263.46,10.872 C262.468,10.344 261.428,9.96 260.34,9.72 C259.252,9.48 258.212,9.36 257.22,9.36 C255.652,9.36 254.156,9.664 252.732,10.272 C251.308,10.88 250.148,11.744 249.252,12.864 C248.356,13.984 247.908,15.344 247.908,16.944 C247.908,18.352 248.18,19.52 248.724,20.448 C249.268,21.376 249.972,22.12 250.836,22.68 C251.7,23.24 252.652,23.696 253.692,24.048 C254.732,24.4 255.748,24.72 256.74,25.008 C257.7,25.264 258.572,25.536 259.356,25.824 C260.14,26.112 260.772,26.464 261.252,26.88 C261.732,27.296 261.972,27.856 261.972,28.56 C261.972,29.392 261.756,30.008 261.324,30.408 C260.892,30.808 260.388,31.064 259.812,31.176 C259.236,31.288 258.708,31.36 258.228,31.392 C256.692,31.392 255.412,31.136 254.388,30.624 C253.364,30.112 252.388,29.392 251.46,28.464 C250.916,27.92 250.356,27.624 249.78,27.576 C249.204,27.528 248.66,27.664 248.148,27.984 C247.348,28.496 246.932,29.104 246.9,29.808 C246.868,30.512 247.012,31.088 247.332,31.536 C248.58,33.2 250.148,34.36 252.036,35.016 C253.924,35.672 255.812,36 257.7,36 Z" id="OliverBinns" fill="#333333" fill-rule="nonzero"></path>
                <path d="M4.99342833,7.52306259 C1.95042546,10.1435442 0,14.1840632 0,18.7171174 C0,26.6163813 5.9227145,33.02 13.2287531,33.02 C20.5347917,33.02 26.4575062,26.6163813 26.4575062,18.7171174 C26.4575062,14.1820322 24.5053326,10.1399236 21.459987,7.51954117" id="Path" stroke="#333333" stroke-width="6" stroke-linecap="round"></path>
            </g>
        </g>
    </g>
</svg>